<svg width="472" height="366" viewBox="0 0 472 366" fill="none" xmlns="http://www.w3.org/2000/svg">
<path d="M431.446 365.276H40.8961C18.711 365.276 0.689087 347.254 0.689087 325.069V40.4828C0.689087 18.2977 18.711 0.27578 40.8961 0.27578H431.389C453.574 0.27578 471.596 18.2977 471.596 40.4828V325.069C471.653 347.254 453.631 365.276 431.446 365.276Z" fill="white"/>
<path d="M448.841 40.1977C448.841 30.7875 441.141 23.0883 431.731 23.0883H40.611C31.2008 23.0883 23.5016 30.7875 23.5016 40.1977V108.692H448.784V40.1977H448.841ZM78.3086 95.0047C62.2258 95.0047 49.1086 81.8875 49.1086 65.8047C49.1086 49.7219 62.2258 36.6047 78.3086 36.6047C94.3914 36.6047 107.509 49.7219 107.509 65.8047C107.509 81.8875 94.4485 95.0047 78.3086 95.0047ZM239.023 91.1266H157.696C143.952 91.1266 132.773 79.9484 132.773 66.2039C132.773 52.4594 143.952 41.2812 157.696 41.2812H239.023C252.767 41.2812 263.945 52.4594 263.945 66.2039C263.945 79.9484 252.767 91.1266 239.023 91.1266Z" fill="#E6E6E6"/>
<path d="M65.6476 322.331H236.057C239.194 322.331 241.76 319.765 241.76 316.628C241.76 313.491 239.194 310.925 236.057 310.925H65.6476C60.7999 310.925 56.8647 306.99 56.8647 302.142V192.186C56.8647 189.049 54.2983 186.483 51.1616 186.483C48.0249 186.483 45.4585 189.049 45.4585 192.186V302.199C45.5155 313.263 54.5265 322.331 65.6476 322.331Z" fill="#A3A3A3"/>
<path d="M78.3086 48.0109C68.4993 48.0109 60.5149 55.9953 60.5149 65.8047C60.5149 75.6141 68.4993 83.5984 78.3086 83.5984C88.118 83.5984 96.1024 75.6141 96.1024 65.8047C96.1024 55.9953 88.118 48.0109 78.3086 48.0109Z" fill="white"/>
<path d="M78.3086 36.6047C62.2258 36.6047 49.1086 49.7219 49.1086 65.8047C49.1086 81.8875 62.2258 95.0047 78.3086 95.0047C94.3915 95.0047 107.509 81.8875 107.509 65.8047C107.509 49.7219 94.4485 36.6047 78.3086 36.6047ZM78.3086 83.5984C68.4993 83.5984 60.5149 75.6141 60.5149 65.8047C60.5149 55.9953 68.4993 48.0109 78.3086 48.0109C88.118 48.0109 96.1024 55.9953 96.1024 65.8047C96.1024 75.6141 88.118 83.5984 78.3086 83.5984Z" fill="#12B886"/>
<path d="M239.023 52.7445H157.696C150.282 52.7445 144.18 58.7898 144.18 66.2609C144.18 73.732 150.225 79.7773 157.696 79.7773H239.023C246.437 79.7773 252.539 73.732 252.539 66.2609C252.539 58.7898 246.437 52.7445 239.023 52.7445Z" fill="white"/>
<path d="M239.023 41.3383H157.696C143.952 41.3383 132.773 52.5164 132.773 66.2609C132.773 80.0055 143.952 91.1836 157.696 91.1836H239.023C252.767 91.1836 263.945 80.0055 263.945 66.2609C263.945 52.5164 252.767 41.3383 239.023 41.3383ZM239.023 79.7203H157.696C150.282 79.7203 144.18 73.675 144.18 66.2039C144.18 58.7328 150.225 52.6875 157.696 52.6875H239.023C246.437 52.6875 252.539 58.7328 252.539 66.2039C252.539 73.675 246.437 79.7203 239.023 79.7203Z" fill="#12B886"/>
<path d="M431.731 0.27578H40.611C18.5969 0.27578 0.689087 18.1836 0.689087 40.1977V325.354C0.689087 347.368 18.5969 365.276 40.611 365.276H431.674C453.688 365.276 471.596 347.368 471.596 325.354V40.1977C471.653 18.1836 453.745 0.27578 431.731 0.27578ZM448.841 325.354C448.841 334.764 441.141 342.463 431.731 342.463H40.611C31.2008 342.463 23.5016 334.764 23.5016 325.354V120.098H448.784V325.354H448.841ZM448.841 108.692H23.5586V40.1977C23.5586 30.7875 31.2578 23.0883 40.668 23.0883H431.731C441.141 23.0883 448.841 30.7875 448.841 40.1977V108.692Z" fill="#12B886"/>
<path d="M206.287 249.217L141.1 223.382L206.287 198.459V171.94L112.87 212.375V234.902L206.287 275.509V249.217ZM268.337 152.378H248.718L214.956 293.359H234.232L268.337 152.378ZM370.537 212.546L277.006 172.111V198.231L342.249 223.61L277.006 249.274V275.623L370.537 234.902V212.546Z" fill="#12B886"/>
</svg>
