<svg width="153" height="49" viewBox="0 0 153 49" fill="none" xmlns="http://www.w3.org/2000/svg">
<path d="M20.1583 48L0.83025 3.2H12.0303L28.9263 42.88H22.3343L39.4863 3.2H49.7903L30.3983 48H20.1583ZM66.6483 48.512C62.9789 48.512 59.7149 47.744 56.8563 46.208C54.0403 44.672 51.8003 42.5813 50.1363 39.936C48.5149 37.248 47.7043 34.1973 47.7043 30.784C47.7043 27.328 48.5149 24.2773 50.1363 21.632C51.8003 18.944 54.0403 16.8533 56.8563 15.36C59.7149 13.824 62.9789 13.056 66.6483 13.056C70.2749 13.056 73.5176 13.824 76.3763 15.36C79.2349 16.8533 81.4749 18.9227 83.0963 21.568C84.7176 24.2133 85.5283 27.2853 85.5283 30.784C85.5283 34.1973 84.7176 37.248 83.0963 39.936C81.4749 42.5813 79.2349 44.672 76.3763 46.208C73.5176 47.744 70.2749 48.512 66.6483 48.512ZM66.6483 40.32C68.3123 40.32 69.8056 39.936 71.1283 39.168C72.4509 38.4 73.4963 37.312 74.2643 35.904C75.0323 34.4533 75.4163 32.7467 75.4163 30.784C75.4163 28.7787 75.0323 27.072 74.2643 25.664C73.4963 24.256 72.4509 23.168 71.1283 22.4C69.8056 21.632 68.3123 21.248 66.6483 21.248C64.9843 21.248 63.4909 21.632 62.1683 22.4C60.8456 23.168 59.7789 24.256 58.9683 25.664C58.2003 27.072 57.8163 28.7787 57.8163 30.784C57.8163 32.7467 58.2003 34.4533 58.9683 35.904C59.7789 37.312 60.8456 38.4 62.1683 39.168C63.4909 39.936 64.9843 40.32 66.6483 40.32ZM92.2018 48V0.511997H102.186V48H92.2018ZM128.094 48.512C124.041 48.512 120.884 47.488 118.622 45.44C116.361 43.3493 115.23 40.256 115.23 36.16V5.952H125.214V36.032C125.214 37.4827 125.598 38.6133 126.366 39.424C127.134 40.192 128.18 40.576 129.502 40.576C131.081 40.576 132.425 40.1493 133.534 39.296L136.222 46.336C135.198 47.0613 133.961 47.616 132.51 48C131.102 48.3413 129.63 48.512 128.094 48.512ZM109.918 22.016V14.336H133.79V22.016H109.918Z" fill="black"/>
<path d="M146.228 48.512C144.521 48.512 143.049 47.936 141.812 46.784C140.617 45.5893 140.02 44.0747 140.02 42.24C140.02 40.4053 140.617 38.9333 141.812 37.824C143.049 36.672 144.521 36.096 146.228 36.096C147.977 36.096 149.449 36.672 150.644 37.824C151.838 38.9333 152.436 40.4053 152.436 42.24C152.436 44.0747 151.838 45.5893 150.644 46.784C149.449 47.936 147.977 48.512 146.228 48.512Z" fill="#12B886"/>
</svg>
